REM Ripping Tool: trurip

FILE "Cal II (1993)(NEC Avenue)(JP).img" BINARY
  TRACK 01 AUDIO
    INDEX 01 00:00:00
  TRACK 02 MODE1/2352
    INDEX 00 00:44:65
    INDEX 01 00:47:65
  TRACK 03 AUDIO
    INDEX 00 13:23:02
    INDEX 01 13:25:02
  TRACK 04 AUDIO
    INDEX 01 15:51:70
  TRACK 05 AUDIO
    INDEX 01 19:26:67
  TRACK 06 AUDIO
    INDEX 01 20:03:43
  TRACK 07 MODE1/2352
    INDEX 00 20:07:44
    INDEX 01 20:10:44

REM DISC HASHES
REM CRC32 : cbc64b8d
REM MD5   : 85f0c8d525a92116526d051d4dd7d89c
REM SHA1  : 2cf408842c8a213bc6f03f3b367f14727ab67361

REM Gap Append Method: Prev [crc32]
REM Trk 01: ccd25d2f
REM Trk 02: 4775cc65
REM Trk 03: 89ebad38
REM Trk 04: 667d68d7
REM Trk 05: 62538455
REM Trk 06: 1c5da20b
REM Trk 07: 726d5e10

REM Gap Append Method: Prev [md5]
REM Trk 01: 7938d9aa88f644b60389fa8246f2052e
REM Trk 02: 3f52a5d190034b360f1efdcc93431bf0
REM Trk 03: 81d9021c23b90391ca7885c31ac58635
REM Trk 04: 88b728ab78610a22bf75cc7df1887f46
REM Trk 05: 7bebf5cb3d4d7b462c6a37716c5dda6c
REM Trk 06: 4cb097f5a6a1a345ecab26126518e132
REM Trk 07: 59ef0f77ddeadfcedbf88aabd1c5374f

REM Gap Append Method: Prev [sha1]
REM Trk 01: 0fc7f8840f23f43ebfb7041f71427c165f368105
REM Trk 02: 1a267c12c0baaa6262d9367b58ad30bb633329e9
REM Trk 03: 6ac254ac78c87b3f428b202a08a1da1e0a228908
REM Trk 04: 3ef0035fb220cc00ffd98596c9328d8ddfb4e050
REM Trk 05: c7e6b01428fc97d1b1b16694bdc58281fa766a39
REM Trk 06: aaed23f36d819a76ee6652e528a17d020133267e
REM Trk 07: ff1d0dc861e25ca1b40d774619012183ea5c507b

REM Gap Append Method: None [crc32]
REM Trk 01: b979500c
REM Trk 02: e8a9aa9f
REM Trk 03: 89ebad38
REM Trk 04: 667d68d7
REM Trk 05: 62538455
REM Trk 06: 5ac14dc9
REM Trk 07: 726d5e10
REM Gap 02: 16e86594
REM Gap 03: 7abe247f
REM Gap 07: e3283b5a

REM Gap Append Method: None [md5]
REM Trk 01: a25a2c129b7100092cc40e9b6e176a63
REM Trk 02: 83f95516e8f312f265726ff10bc4bf84
REM Trk 03: 81d9021c23b90391ca7885c31ac58635
REM Trk 04: 88b728ab78610a22bf75cc7df1887f46
REM Trk 05: 7bebf5cb3d4d7b462c6a37716c5dda6c
REM Trk 06: bc0944df99fecd8cdd63b278a3c1f25f
REM Trk 07: 59ef0f77ddeadfcedbf88aabd1c5374f
REM Gap 02: fbd314ec9876f082e173fbb5baf092aa
REM Gap 03: 9df204fbc98bb8965081cb30a89715fc
REM Gap 07: 0a51374a4512130159e420ae0793c899

REM Gap Append Method: None [sha1]
REM Trk 01: 9ac3f1a11d434d186466917f1c7955bf7670c910
REM Trk 02: 333491a91c48d8e5091d32f58c3992a245b5b7e6
REM Trk 03: 6ac254ac78c87b3f428b202a08a1da1e0a228908
REM Trk 04: 3ef0035fb220cc00ffd98596c9328d8ddfb4e050
REM Trk 05: c7e6b01428fc97d1b1b16694bdc58281fa766a39
REM Trk 06: 9b224a6dbb2afa3a000f440a0f8e910e3522995d
REM Trk 07: ff1d0dc861e25ca1b40d774619012183ea5c507b
REM Gap 02: 08a9af7bae10b281a8edaad6e9ea6cd1646d0ce0
REM Gap 03: cbe29e0bd725ef1194f8c47619dd42078e841de2
REM Gap 07: 273ecc05b942de7afcaa20f82dfab5720f5a76e7

REM Gap Append Method: Next [crc32]
REM Trk 01: b979500c
REM Trk 02: fe5154f6
REM Trk 03: 591e9510
REM Trk 04: 667d68d7
REM Trk 05: 62538455
REM Trk 06: 5ac14dc9
REM Trk 07: 82dfc89c

REM Gap Append Method: Next [md5]
REM Trk 01: a25a2c129b7100092cc40e9b6e176a63
REM Trk 02: 05db04ccdb13514630e6599d1fbfc46e
REM Trk 03: 8035b0ad32bcae2d9b8090c5b35473e7
REM Trk 04: 88b728ab78610a22bf75cc7df1887f46
REM Trk 05: 7bebf5cb3d4d7b462c6a37716c5dda6c
REM Trk 06: bc0944df99fecd8cdd63b278a3c1f25f
REM Trk 07: a56cfa9b70b383b81812d789ad6e568f

REM Gap Append Method: Next [sha1]
REM Trk 01: 9ac3f1a11d434d186466917f1c7955bf7670c910
REM Trk 02: dcfc17dd1648863346a85d4cd9c08acc2bd80af2
REM Trk 03: 372d18a0fd448d4b119cfa976527fcd3560d1689
REM Trk 04: 3ef0035fb220cc00ffd98596c9328d8ddfb4e050
REM Trk 05: c7e6b01428fc97d1b1b16694bdc58281fa766a39
REM Trk 06: 9b224a6dbb2afa3a000f440a0f8e910e3522995d
REM Trk 07: bf17d0764628570cb8ad9e45b1c1ee2a38a95bd0

